<svg xmlns="http://www.w3.org/2000/svg" viewBox="0 0 600 600">
  <defs>
    <linearGradient id="bg5" x1="0" y1="0" x2="600" y2="600" gradientUnits="userSpaceOnUse">
      <stop stop-color="#ec4899"/><stop offset="1" stop-color="#7c3aed"/>
    </linearGradient>
    <linearGradient id="rb5" x1="0" y1="0" x2="0" y2="1">
      <stop stop-color="#fde047"/><stop offset="1" stop-color="#f97316"/>
    </linearGradient>
  </defs>
  <rect width="600" height="600" fill="url(#bg5)"/>
  <circle cx="115" cy="130" r="88" fill="#fff" opacity="0.10"/>
  <circle cx="500" cy="500" r="120" fill="#fff" opacity="0.08"/>
  <!-- kutu gövdesi -->
  <rect x="200" y="300" width="200" height="180" rx="12" fill="#ffffff"/>
  <!-- kapak -->
  <rect x="184" y="262" width="232" height="56" rx="12" fill="#f4ecff"/>
  <!-- kurdele -->
  <rect x="284" y="262" width="32" height="218" fill="url(#rb5)"/>
  <!-- fiyonk -->
  <path d="M300 262 c-30 -42 -86 -34 -86 2 c0 24 46 22 86 -2 Z" fill="url(#rb5)"/>
  <path d="M300 262 c30 -42 86 -34 86 2 c0 24 -46 22 -86 -2 Z" fill="url(#rb5)"/>
  <circle cx="300" cy="262" r="16" fill="#fbbf24"/>
  <!-- yıldız etiketi -->
  <path d="M300 360 l11 23 25 3 -18 17 4 25 -22 -12 -22 12 4 -25 -18 -17 25 -3 Z" fill="#ec4899"/>
</svg>
